<?xml version="1.0" encoding="UTF-8"?>
<svg id="Layer_2" data-name="Layer 2" xmlns="http://www.w3.org/2000/svg" viewBox="0 0 370.46 199.21">
  <defs>
    <style>
      .cls-1 {
        fill: #f5cb14;
      }

      .cls-1, .cls-2 {
        stroke-width: 0px;
      }

      .cls-2 {
        fill: #00a651;
      }
    </style>
  </defs>
  <g id="Layer_1-2" data-name="Layer 1">
    <g>
      <polygon class="cls-1" points="292.91 40.52 284.05 40.81 284.05 50 293 50 292.91 40.52"/>
      <polygon class="cls-1" points="308.91 40.52 300.05 40.81 300.05 50 309 50 308.91 40.52"/>
      <polygon class="cls-1" points="284.05 65 293 65 292.91 55.52 284.05 55.81 284.05 65"/>
      <polygon class="cls-1" points="300.05 65 309 65 308.91 55.52 300.05 55.81 300.05 65"/>
      <path class="cls-1" d="M28.16,139.89c3.62,0,8.62-1.01,9.7-1.59v-8.18c-3.11,1.81-6.16,2.61-9.27,2.61-11.44,0-19.77-9.05-19.77-20.78s7.89-20.49,19.63-20.49c3.98,0,6.81.72,9.41,2.46v-8.04c-2.68-.94-5.43-1.59-9.27-1.59-16,0-27.59,12.38-27.59,27.81s10.57,27.81,27.16,27.81Z"/>
      <path class="cls-1" d="M71.97,139.89c15.79,0,28.32-11.95,28.32-28.17,0-14.92-12.17-27.45-28.1-27.45-15.06,0-27.66,11.95-27.66,28.39,0,14.48,12.6,27.23,27.45,27.23ZM72.77,91.44c11.3,0,19.7,9.7,19.7,20.78,0,9.78-7.39,20.49-20.06,20.49s-20.06-10.07-20.06-20.86c0-7.97,5.94-20.42,20.42-20.42Z"/>
      <polygon class="cls-1" points="116.3 97.45 116.44 97.45 142.95 138.87 151.06 138.87 151.06 85.28 143.24 85.28 143.24 126.05 143.09 126.05 117.02 85.28 108.48 85.28 108.48 138.87 116.3 138.87 116.3 97.45"/>
      <path class="cls-1" d="M186.7,139.89c15.79,0,28.32-11.95,28.32-28.17,0-14.92-12.17-27.45-28.1-27.45-15.06,0-27.66,11.95-27.66,28.39,0,14.48,12.6,27.23,27.45,27.23ZM187.49,91.44c11.3,0,19.7,9.7,19.7,20.78,0,9.78-7.39,20.49-20.06,20.49s-20.06-10.07-20.06-20.86c0-7.97,5.94-20.42,20.42-20.42Z"/>
      <polygon class="cls-1" points="278.57 138.87 307.46 138.87 307.46 131.7 286.39 131.7 286.39 115.41 307.46 115.41 307.46 108.24 286.39 108.24 286.39 92.45 307.46 92.45 307.46 85.28 278.57 85.28 278.57 138.87"/>
      <path class="cls-1" d="M353,103.1c0-11.01-5.72-17.82-18.61-17.82h-17.16v53.59h7.82v-24.84h.14l17.67,24.84h9.78l-14.99-19.99c7.53-.22,15.35-5.58,15.35-15.79ZM330.77,112.95h-5.72v-20.49h8.26c6.95,0,11.88,3.84,11.88,9.99,0,6.95-5.29,10.5-14.41,10.5Z"/>
      <polygon class="cls-1" points="23.67 182.78 8.93 182.78 8.93 170.23 6.08 170.23 6.08 198.71 8.93 198.71 8.93 185.36 23.67 185.36 23.67 198.71 26.52 198.71 26.52 170.23 23.67 170.23 23.67 182.78"/>
      <path class="cls-1" d="M46.15,169.73c-8.35,0-15.05,6.7-15.05,14.89s7.27,14.58,15.05,14.58c8.27,0,15.08-6.7,15.08-14.74s-6.81-14.74-15.08-14.74ZM46.15,196.63c-6.62,0-12.2-5.58-12.2-12.01s5.43-12.31,12.16-12.31,12.28,5.62,12.28,12.2-5.43,12.12-12.24,12.12Z"/>
      <polygon class="cls-1" points="81.53 194.48 71.18 170.23 66.79 170.23 66.79 198.71 69.64 198.71 69.64 173.35 69.72 173.35 80.3 198.71 82.72 198.71 93.38 173.35 93.46 173.35 93.46 198.71 96.31 198.71 96.31 170.23 91.92 170.23 81.53 194.48"/>
      <polygon class="cls-1" points="102.91 198.71 118.49 198.71 118.49 196.13 105.75 196.13 105.75 185.63 118.07 185.63 118.07 183.05 105.75 183.05 105.75 172.81 118.49 172.81 118.49 170.23 102.91 170.23 102.91 198.71"/>
      <rect class="cls-1" x="134.43" y="170.23" width="2.85" height="28.48"/>
      <polygon class="cls-1" points="163.88 193.86 163.8 193.86 147.91 170.23 144.06 170.23 144.06 198.71 146.91 198.71 146.91 173.66 146.99 173.66 163.88 198.71 166.73 198.71 166.73 170.23 163.88 170.23 163.88 193.86"/>
      <path class="cls-1" d="M179.62,182.24c-4.04-1.04-5.5-2.54-5.5-4.96,0-2.77,2.23-4.96,5.16-4.96,2.66,0,5.04,2.23,5.04,5.16h2.85c0-4.39-3.46-7.74-7.89-7.74s-8,3.16-8,7.66c0,5.19,3.89,6.54,7.97,7.7,3.73,1.08,5.77,2.81,5.77,5.89s-2.5,5.66-5.73,5.66c-3.42,0-5.73-2.23-5.93-5.89h-2.85c.08,5.08,3.73,8.47,8.77,8.47,4.77,0,8.58-3.69,8.58-8.35,0-3.85-2.08-7.04-8.24-8.62Z"/>
      <path class="cls-1" d="M200.33,170.23h-8.62v28.48h2.85v-11.47h5.73c7.77,0,10.24-4.62,10.24-8.43s-2.35-8.58-10.2-8.58ZM200.91,184.67h-6.35v-11.85h5.73c5.58,0,7.39,3.08,7.39,5.93,0,3.54-2.81,5.93-6.77,5.93Z"/>
      <polygon class="cls-1" points="214.3 198.71 229.88 198.71 229.88 196.13 217.15 196.13 217.15 185.63 229.46 185.63 229.46 183.05 217.15 183.05 217.15 172.81 229.88 172.81 229.88 170.23 214.3 170.23 214.3 198.71"/>
      <path class="cls-1" d="M233.89,184.4c0,8.43,6.04,14.82,14.7,14.82,2.77,0,5.31-.5,7.2-1.46v-3.04c-2.04,1.19-4.66,1.92-7.16,1.92-6.77,0-11.89-5.39-11.89-12.2s5.19-12.12,11.89-12.12c2.39,0,5.96,1.12,7.16,2.04v-3.08c-1.15-.85-4.81-1.58-7.16-1.58-8.2,0-14.74,6.04-14.74,14.7Z"/>
      <polygon class="cls-1" points="259.04 172.81 265.58 172.81 265.58 198.71 268.42 198.71 268.42 172.81 274.93 172.81 274.93 170.23 259.04 170.23 259.04 172.81"/>
      <rect class="cls-1" x="279.1" y="170.23" width="2.85" height="28.48"/>
      <g>
        <path class="cls-1" d="M347,42.95V10.09h-29v6.91s0,1.17,0,1.17L296.74,0h0s0,0,0,0h0s-74.77,63.33-74.77,63.33v6.67h10.39l64.52-56.67,64.16,54.37v82.58H0v8.95l369.89-1.16V62.52l-22.89-19.57ZM327,17h11v18.26l-11-9.4v-8.86Z"/>
        <path class="cls-1" d="M301.58,169.73c-8.35,0-15.05,6.7-15.05,14.89s7.27,14.58,15.05,14.58c8.27,0,15.08-6.7,15.08-14.74s-6.81-14.74-15.08-14.74ZM301.58,196.63c-6.62,0-12.2-5.58-12.2-12.01s5.43-12.31,12.16-12.31,12.28,5.62,12.28,12.2-5.43,12.12-12.24,12.12Z"/>
      </g>
      <polygon class="cls-1" points="341.02 193.86 340.95 193.86 325.05 170.23 321.2 170.23 321.2 198.71 324.05 198.71 324.05 173.66 324.13 173.66 341.02 198.71 343.87 198.71 343.87 170.23 341.02 170.23 341.02 193.86"/>
      <path class="cls-1" d="M356.76,182.24c-4.04-1.04-5.5-2.54-5.5-4.96,0-2.77,2.23-4.96,5.16-4.96,2.66,0,5.04,2.23,5.04,5.16h2.85c0-4.39-3.46-7.74-7.89-7.74s-8,3.16-8,7.66c0,5.19,3.89,6.54,7.97,7.7,3.73,1.08,5.77,2.81,5.77,5.89s-2.5,5.66-5.73,5.66c-3.42,0-5.73-2.23-5.93-5.89h-2.85c.08,5.08,3.73,8.47,8.77,8.47,4.77,0,8.58-3.69,8.58-8.35,0-3.85-2.08-7.04-8.24-8.62Z"/>
      <path class="cls-2" d="M370.46,50.82h0c-59.38-1-119,33-138.09,73.83h0v-39.83h-10.39v54.05h13.39c21.09-38.05,62.02-83.63,135.09-88.05Z"/>
    </g>
  </g>
</svg>