<?xml version="1.0" encoding="UTF-8"?><svg id="Layer_2" xmlns="http://www.w3.org/2000/svg" viewBox="0 0 192.344 91.605"><g id="Data"><g id="Logo-Whiite"><polygon points="130.013 8.786 192.344 61.131 192.344 84.505 189.886 84.505 189.886 62.277 129.912 11.911 130.013 8.786" style="fill:#fff; stroke-width:0px;"/><rect x="112.41" y="25.005" width="36.471" height="2.459" style="fill:#fff; stroke-width:0px;"/><polygon points="159.775 36.713 113.003 36.713 110.961 34.113 159.775 34.254 159.775 36.713" style="fill:#fff; stroke-width:0px;"/><polygon points="172.41 47.178 124.827 47.178 123.287 44.719 170.87 44.719 172.41 47.178" style="fill:#fff; stroke-width:0px;"/><rect x="132.273" y="55.183" width="52.77" height="2.459" style="fill:#fff; stroke-width:0px;"/><rect x="132.656" y="65.903" width="58.896" height="2.459" style="fill:#fff; stroke-width:0px;"/><rect x="133.085" y="75.857" width="58.467" height="2.459" style="fill:#fff; stroke-width:0px;"/><path d="M78.088,36.969h-15.016v-15.016h15.016v15.016ZM65.529,34.51h10.1v-10.1h-10.1v10.1Z" style="fill:#fff; stroke-width:0px;"/><polygon points="129.975 8.909 129.936 11.911 55.329 91.605 27.308 60.786 32.359 60.984 54.947 75.525 129.975 8.909" style="fill:#fff; stroke-width:0px;"/><polygon points="21.583 32.806 19.022 34.84 19.022 5.764 40.376 5.764 40.376 18.908 37.817 20.942 37.817 8.323 21.583 8.323 21.583 32.806" style="fill:#fff; stroke-width:0px;"/><polygon points="103.731 27.344 71.17 0 0 52.296 0 84.556 2.459 84.556 2.459 53.54 71.069 3.124 101.85 28.973 103.731 27.344" style="fill:#fff; stroke-width:0px;"/><polygon points="106.36 29.552 104.479 31.181 131.045 53.491 131.045 84.533 133.502 84.533 133.502 52.345 106.36 29.552" style="fill:#fff; stroke-width:0px;"/></g></g></svg>