<?xml version="1.0" encoding="UTF-8"?><svg id="Layer_2" xmlns="http://www.w3.org/2000/svg" viewBox="0 0 437.506 74.563"><g id="Data"><g id="Logo-Vertical"><polygon points="105.825 7.152 156.56 49.759 156.56 68.784 154.559 68.784 154.559 50.691 105.742 9.695 105.825 7.152" style="fill:#424242; stroke-width:0px;"/><rect x="91.496" y="20.354" width="29.686" height="2.001" style="fill:#424242; stroke-width:0px;"/><polygon points="130.05 29.883 91.98 29.883 90.318 27.767 130.05 27.882 130.05 29.883" style="fill:#424242; stroke-width:0px;"/><polygon points="140.333 38.401 101.602 38.401 100.349 36.4 139.079 36.4 140.333 38.401" style="fill:#424242; stroke-width:0px;"/><rect x="107.664" y="44.918" width="42.953" height="2.001" style="fill:#424242; stroke-width:0px;"/><rect x="107.976" y="53.643" width="47.939" height="2.001" style="fill:#424242; stroke-width:0px;"/><rect x="108.325" y="61.745" width="47.59" height="2.001" style="fill:#424242; stroke-width:0px;"/><path d="M63.56,30.091h-12.222v-12.222h12.222v12.222ZM53.338,28.09h8.221v-8.221h-8.221v8.221Z" style="fill:#424242; stroke-width:0px;"/><polygon points="17.567 26.702 15.483 28.358 15.483 4.691 32.864 4.691 32.864 15.391 30.781 17.045 30.781 6.774 17.567 6.774 17.567 26.702" style="fill:#424242; stroke-width:0px;"/><polygon points="84.432 22.257 57.929 0 0 42.567 0 68.825 2.001 68.825 2.001 43.579 57.846 2.543 82.901 23.583 84.432 22.257" style="fill:#424242; stroke-width:0px;"/><polygon points="86.572 24.054 85.041 25.38 106.664 43.539 106.664 68.806 108.664 68.806 108.664 42.607 86.572 24.054" style="fill:#424242; stroke-width:0px;"/><polygon points="105.794 7.252 105.761 9.695 45.035 74.563 22.228 49.477 26.339 49.639 44.725 61.475 105.794 7.252" style="fill:#66b545; stroke-width:0px;"/><path d="M202.408,47.635h1.578c.206,0,.309.103.309.31v21.035c0,.207-.103.309-.309.309h-1.578c-.206,0-.309-.102-.309-.309v-9.466l-.124-.124h-7.672l-.123.124v9.466c0,.207-.104.309-.31.309h-1.578c-.206,0-.309-.102-.309-.309v-21.035c0-.207.103-.31.309-.31h1.578c.206,0,.31.103.31.31v9.403l.123.124h7.672l.124-.124v-9.403c0-.207.103-.31.309-.31" style="fill:#1d5a85; stroke-width:0px;"/><path d="M212.477,68.748c-.959-.525-1.701-1.263-2.227-2.211-.526-.949-.789-2.042-.789-3.279v-9.559c0-1.238.263-2.336.789-3.295s1.268-1.701,2.227-2.227c.959-.526,2.067-.789,3.325-.789s2.367.263,3.326.789c.959.526,1.707,1.268,2.243,2.227s.804,2.057.804,3.295v9.559c0,1.237-.268,2.33-.804,3.279-.536.948-1.284,1.686-2.243,2.211-.959.527-2.067.789-3.326.789s-2.366-.262-3.325-.789M218.834,66.444c.763-.784,1.145-1.815,1.145-3.094v-9.713c0-1.299-.382-2.346-1.145-3.14-.763-.794-1.773-1.191-3.032-1.191-1.237,0-2.237.397-3,1.191s-1.144,1.841-1.144,3.14v9.713c0,1.279.381,2.31,1.144,3.094.763.784,1.763,1.175,3,1.175,1.259,0,2.269-.391,3.032-1.175" style="fill:#1d5a85; stroke-width:0px;"/><path d="M239.467,47.635h1.609c.206,0,.309.103.309.31v21.035c0,.207-.103.309-.309.309h-1.578c-.206,0-.31-.102-.31-.309v-16.829l-.062-.123-.092.061-4.114,7.147c-.104.144-.228.216-.372.216h-.34c-.145,0-.268-.072-.371-.216l-4.145-7.116-.093-.062-.062.124v16.798c0,.207-.103.309-.31.309h-1.577c-.206,0-.309-.102-.309-.309v-21.035c0-.207.103-.31.309-.31h1.608c.145,0,.268.073.372.217l4.671,7.949.093.031.092-.031,4.61-7.949c.103-.144.227-.217.371-.217" style="fill:#1d5a85; stroke-width:0px;"/><path d="M258.74,49.554h-9.28l-.124.123v7.672l.124.124h6.248c.206,0,.309.103.309.309v1.299c0,.207-.103.31-.309.31h-6.248l-.124.124v7.734l.124.123h9.28c.205,0,.309.103.309.309v1.299c0,.207-.104.31-.309.31h-11.292c-.206,0-.309-.103-.309-.31v-21.035c0-.206.103-.309.309-.309h11.292c.205,0,.309.103.309.309v1.299c0,.207-.104.31-.309.31" style="fill:#1d5a85; stroke-width:0px;"/><path d="M270.619,68.98v-21.035c0-.206.103-.31.309-.31h1.578c.206,0,.309.104.309.31v21.035c0,.207-.103.31-.309.31h-1.578c-.206,0-.309-.103-.309-.31" style="fill:#1d5a85; stroke-width:0px;"/><path d="M289.674,47.635h1.578c.206,0,.309.103.309.31v21.035c0,.207-.103.309-.309.309h-1.671c-.185,0-.309-.071-.371-.216l-8.29-16.55-.109-.062-.046.093.031,16.426c0,.207-.103.309-.31.309h-1.577c-.206,0-.309-.102-.309-.309v-21.035c0-.207.103-.31.309-.31h1.67c.186,0,.31.073.372.217l8.29,16.611.108.062.047-.093-.031-16.487c0-.207.103-.31.309-.31" style="fill:#1d5a85; stroke-width:0px;"/><path d="M297.949,68.006c-1.144-1.021-1.717-2.387-1.717-4.099v-.835c0-.206.103-.31.31-.31h1.516c.205,0,.309.104.309.31v.711c0,1.156.392,2.084,1.176,2.785.783.701,1.824,1.051,3.124,1.051,1.217,0,2.175-.329,2.877-.99.701-.659,1.052-1.525,1.052-2.598,0-.701-.166-1.309-.496-1.825-.33-.515-.815-.99-1.454-1.423-.638-.433-1.557-.98-2.752-1.64-1.28-.68-2.285-1.278-3.017-1.794-.732-.515-1.325-1.144-1.778-1.887-.454-.742-.681-1.649-.681-2.722,0-1.67.536-2.98,1.609-3.929,1.071-.948,2.506-1.423,4.299-1.423,1.919,0,3.444.526,4.579,1.578,1.134,1.052,1.701,2.444,1.701,4.176v.711c0,.207-.103.31-.309.31h-1.546c-.207,0-.31-.103-.31-.31v-.68c0-1.155-.372-2.088-1.114-2.8-.742-.711-1.763-1.067-3.063-1.067-1.154,0-2.057.299-2.706.897-.65.599-.975,1.444-.975,2.537,0,.701.155,1.289.464,1.763.31.475.758.908,1.346,1.299.588.392,1.49.918,2.707,1.578,1.402.784,2.479,1.449,3.233,1.995.752.547,1.35,1.176,1.794,1.887.443.712.665,1.583.665,2.614,0,1.733-.557,3.109-1.671,4.13-1.114,1.021-2.629,1.532-4.547,1.532-1.939,0-3.48-.511-4.625-1.532" style="fill:#1d5a85; stroke-width:0px;"/><path d="M324.151,49.259c1.021,1.104,1.531,2.563,1.531,4.377,0,1.795-.51,3.234-1.531,4.316-1.021,1.083-2.357,1.624-4.006,1.624h-4.609l-.124.124v9.28c0,.207-.104.31-.31.31h-1.578c-.206,0-.308-.103-.308-.31v-21.066c0-.206.102-.31.308-.31h6.621c1.649,0,2.985.552,4.006,1.655M322.496,56.637c.659-.742.99-1.732.99-2.97,0-1.257-.331-2.262-.99-3.015-.66-.753-1.537-1.129-2.63-1.129h-4.33l-.124.123v7.981l.124.124h4.33c1.093,0,1.97-.372,2.63-1.114" style="fill:#1d5a85; stroke-width:0px;"/><path d="M341.582,49.554h-9.28l-.124.123v7.672l.124.124h6.248c.206,0,.309.103.309.309v1.299c0,.207-.103.31-.309.31h-6.248l-.124.124v7.734l.124.123h9.28c.205,0,.309.103.309.309v1.299c0,.207-.104.31-.309.31h-11.292c-.206,0-.309-.103-.309-.31v-21.035c0-.206.103-.309.309-.309h11.292c.205,0,.309.103.309.309v1.299c0,.207-.104.31-.309.31" style="fill:#1d5a85; stroke-width:0px;"/><path d="M347.754,67.867c-1.145-1.114-1.717-2.588-1.717-4.423v-9.993c0-1.835.572-3.304,1.717-4.408,1.144-1.103,2.655-1.655,4.531-1.655,1.898,0,3.419.547,4.564,1.639,1.144,1.094,1.716,2.548,1.716,4.363v.278c0,.206-.103.309-.309.309l-1.577.062c-.207,0-.31-.093-.31-.278v-.433c0-1.196-.376-2.166-1.129-2.909-.753-.742-1.738-1.113-2.955-1.113s-2.196.366-2.938,1.098c-.743.733-1.113,1.707-1.113,2.924v10.27c0,1.217.37,2.191,1.113,2.923.742.733,1.722,1.098,2.938,1.098s2.202-.371,2.955-1.113c.753-.742,1.129-1.712,1.129-2.908v-.433c0-.186.103-.279.31-.279l1.577.093c.206,0,.309.104.309.31v.216c0,1.815-.572,3.274-1.716,4.377-1.145,1.104-2.666,1.656-4.564,1.656-1.876,0-3.387-.558-4.531-1.671" style="fill:#1d5a85; stroke-width:0px;"/><path d="M374.992,47.945v1.299c0,.206-.103.31-.31.31h-5.042l-.123.123v19.303c0,.207-.104.31-.31.31h-1.578c-.206,0-.309-.103-.309-.31v-19.303l-.124-.123h-4.857c-.206,0-.309-.104-.309-.31v-1.299c0-.206.103-.31.309-.31h12.343c.207,0,.31.104.31.31" style="fill:#1d5a85; stroke-width:0px;"/><path d="M379.416,68.98v-21.035c0-.206.103-.31.309-.31h1.578c.206,0,.309.104.309.31v21.035c0,.207-.103.31-.309.31h-1.578c-.206,0-.309-.103-.309-.31" style="fill:#1d5a85; stroke-width:0px;"/><path d="M389.823,68.748c-.959-.525-1.701-1.263-2.227-2.211-.526-.949-.789-2.042-.789-3.279v-9.559c0-1.238.263-2.336.789-3.295s1.268-1.701,2.227-2.227c.959-.526,2.067-.789,3.325-.789s2.367.263,3.326.789c.959.526,1.707,1.268,2.243,2.227s.804,2.057.804,3.295v9.559c0,1.237-.268,2.33-.804,3.279-.536.948-1.284,1.686-2.243,2.211-.959.527-2.067.789-3.326.789s-2.366-.262-3.325-.789M396.18,66.444c.763-.784,1.145-1.815,1.145-3.094v-9.713c0-1.299-.382-2.346-1.145-3.14-.763-.794-1.773-1.191-3.032-1.191-1.237,0-2.237.397-3,1.191s-1.144,1.841-1.144,3.14v9.713c0,1.279.381,2.31,1.144,3.094.763.784,1.763,1.175,3,1.175,1.259,0,2.269-.391,3.032-1.175" style="fill:#1d5a85; stroke-width:0px;"/><path d="M415.793,47.635h1.578c.206,0,.309.103.309.31v21.035c0,.207-.103.309-.309.309h-1.671c-.185,0-.309-.071-.371-.216l-8.29-16.55-.109-.062-.046.093.031,16.426c0,.207-.103.309-.31.309h-1.577c-.206,0-.309-.102-.309-.309v-21.035c0-.207.103-.31.309-.31h1.67c.186,0,.31.073.372.217l8.29,16.611.108.062.047-.093-.031-16.487c0-.207.103-.31.309-.31" style="fill:#1d5a85; stroke-width:0px;"/><path d="M424.067,68.006c-1.144-1.021-1.717-2.387-1.717-4.099v-.835c0-.206.103-.31.31-.31h1.516c.205,0,.309.104.309.31v.711c0,1.156.392,2.084,1.176,2.785.783.701,1.824,1.051,3.124,1.051,1.217,0,2.175-.329,2.877-.99.701-.659,1.052-1.525,1.052-2.598,0-.701-.166-1.309-.496-1.825-.33-.515-.815-.99-1.453-1.423-.639-.433-1.558-.98-2.753-1.64-1.28-.68-2.285-1.278-3.017-1.794-.732-.515-1.325-1.144-1.778-1.887-.454-.742-.681-1.649-.681-2.722,0-1.67.536-2.98,1.609-3.929,1.071-.948,2.506-1.423,4.299-1.423,1.919,0,3.444.526,4.579,1.578,1.134,1.052,1.701,2.444,1.701,4.176v.711c0,.207-.103.31-.309.31h-1.546c-.207,0-.31-.103-.31-.31v-.68c0-1.155-.372-2.088-1.114-2.8-.742-.711-1.763-1.067-3.063-1.067-1.154,0-2.057.299-2.706.897-.65.599-.975,1.444-.975,2.537,0,.701.155,1.289.464,1.763.31.475.758.908,1.346,1.299.588.392,1.49.918,2.707,1.578,1.402.784,2.479,1.449,3.233,1.995.752.547,1.35,1.176,1.794,1.887.443.712.665,1.583.665,2.614,0,1.733-.557,3.109-1.671,4.13-1.114,1.021-2.629,1.532-4.547,1.532-1.939,0-3.48-.511-4.625-1.532" style="fill:#1d5a85; stroke-width:0px;"/><path d="M218.617,15.743c-1.16-1.408-2.482-2.512-3.969-3.311-1.487-.798-3.171-1.197-5.048-1.197-1.567,0-3.014.329-4.345.986-1.33.658-2.489,1.534-3.475,2.63-.986,1.096-1.761,2.341-2.325,3.733-.563,1.394-.844,2.841-.844,4.345,0,1.534.288,3.013.868,4.438.579,1.425,1.377,2.684,2.395,3.78,1.017,1.096,2.208,1.973,3.569,2.63,1.362.658,2.825.986,4.391.986,1.815,0,3.389-.383,4.72-1.15,1.33-.767,2.575-1.809,3.733-3.123h7.326c-.657,1.534-1.525,2.928-2.605,4.179-1.082,1.253-2.318,2.318-3.71,3.194-1.394.877-2.888,1.557-4.486,2.043-1.596.486-3.209.728-4.836.728-2.443,0-4.737-.47-6.881-1.41-2.145-.938-4.015-2.222-5.612-3.851-1.597-1.627-2.858-3.521-3.781-5.682-.923-2.16-1.385-4.445-1.385-6.856,0-2.379.462-4.627,1.385-6.739.923-2.114,2.184-3.961,3.781-5.542,1.597-1.581,3.452-2.833,5.564-3.757,2.115-.923,4.377-1.386,6.787-1.386,1.722,0,3.396.243,5.025.728,1.628.486,3.131,1.174,4.508,2.067,1.377.892,2.623,1.972,3.734,3.24,1.111,1.268,2.012,2.701,2.7,4.297h-7.184Z" style="fill:#1d5a85; stroke-width:0px;"/><path d="M249.002,40.633c-2.411,0-4.69-.453-6.833-1.362-2.146-.907-4.023-2.152-5.636-3.733-1.612-1.581-2.887-3.436-3.827-5.566-.939-2.128-1.41-4.414-1.41-6.856,0-2.473.462-4.782,1.386-6.927.924-2.144,2.191-4.016,3.804-5.612,1.613-1.597,3.491-2.857,5.635-3.78,2.145-.924,4.438-1.386,6.881-1.386s4.743.462,6.903,1.386c2.16.923,4.039,2.183,5.635,3.78,1.598,1.596,2.866,3.468,3.805,5.612.94,2.145,1.409,4.454,1.409,6.927,0,2.442-.469,4.728-1.409,6.856-.939,2.13-2.216,3.985-3.827,5.566-1.614,1.581-3.491,2.826-5.637,3.733-2.143.909-4.436,1.362-6.879,1.362M249.002,11.328c-1.596,0-3.092.314-4.486.939-1.393.627-2.606,1.472-3.639,2.537-1.033,1.064-1.839,2.309-2.419,3.733-.58,1.425-.868,2.935-.868,4.532,0,1.566.297,3.053.892,4.462.595,1.408,1.401,2.646,2.419,3.709,1.016,1.066,2.222,1.911,3.615,2.537,1.394.626,2.89.939,4.486.939s3.091-.313,4.484-.939c1.394-.626,2.6-1.471,3.617-2.537,1.017-1.063,1.823-2.301,2.418-3.709.594-1.409.893-2.896.893-4.462,0-1.597-.29-3.107-.87-4.532-.578-1.424-1.377-2.669-2.395-3.733-1.018-1.065-2.222-1.91-3.616-2.537-1.393-.625-2.904-.939-4.531-.939" style="fill:#1d5a85; stroke-width:0px;"/><polygon points="300.472 5.411 300.472 11.469 300.472 40.633 293.239 40.633 278.541 15.038 278.399 15.038 278.399 40.633 271.872 40.633 271.872 5.411 279.338 5.411 293.897 31.052 294.038 31.052 294.038 11.469 287.98 11.469 294.038 5.411 300.472 5.411" style="fill:#1d5a85; stroke-width:0px;"/><path d="M323.673,40.633c-2.411,0-4.69-.453-6.833-1.362-2.146-.907-4.023-2.152-5.636-3.733-1.612-1.581-2.887-3.436-3.827-5.566-.939-2.128-1.41-4.414-1.41-6.856,0-2.473.462-4.782,1.386-6.927.924-2.144,2.191-4.016,3.804-5.612,1.613-1.597,3.491-2.857,5.635-3.78,2.145-.924,4.438-1.386,6.881-1.386s4.743.462,6.903,1.386c2.16.923,4.039,2.183,5.635,3.78,1.598,1.596,2.866,3.468,3.805,5.612.94,2.145,1.409,4.454,1.409,6.927,0,2.442-.469,4.728-1.409,6.856-.939,2.13-2.216,3.985-3.827,5.566-1.614,1.581-3.491,2.826-5.637,3.733-2.143.909-4.436,1.362-6.879,1.362M323.673,11.328c-1.596,0-3.092.314-4.486.939-1.393.627-2.606,1.472-3.639,2.537-1.033,1.064-1.839,2.309-2.419,3.733-.58,1.425-.868,2.935-.868,4.532,0,1.566.297,3.053.892,4.462.595,1.408,1.401,2.646,2.419,3.709,1.016,1.066,2.222,1.911,3.615,2.537,1.394.626,2.89.939,4.486.939s3.091-.313,4.484-.939c1.394-.626,2.599-1.471,3.617-2.537,1.017-1.063,1.823-2.301,2.418-3.709.594-1.409.893-2.896.893-4.462,0-1.597-.29-3.107-.87-4.532-.578-1.424-1.377-2.669-2.395-3.733-1.018-1.065-2.222-1.91-3.616-2.537-1.393-.625-2.904-.939-4.531-.939" style="fill:#1d5a85; stroke-width:0px;"/><polygon points="377.351 5.411 352.556 40.633 346.638 40.633 346.638 11.469 353.165 5.411 353.165 29.033 353.213 29.033 369.368 5.411 377.351 5.411" style="fill:#1d5a85; stroke-width:0px;"/><polygon points="383.079 5.365 402.053 5.365 402.053 11.516 389.608 11.516 389.608 20.111 396.651 20.111 396.651 26.216 389.608 26.216 389.608 34.529 402.053 34.529 402.053 40.634 383.079 40.634 383.079 5.365" style="fill:#1d5a85; stroke-width:0px;"/><path d="M427.973,28.008c1.189-.282,2.229-.618,3.123-1.01.892-.39,1.792-1.025,2.7-1.901,1.095-1.034,1.932-2.317,2.512-3.851.579-1.534.868-3.053.868-4.556,0-1.691-.359-3.28-1.079-4.766-.721-1.487-1.737-2.748-3.053-3.781-1.253-.971-2.606-1.604-4.062-1.902-1.456-.297-2.966-.447-4.532-.447h-10.755v.05h-4.187v35.269h6.794l-.266-6.105V11.995l.003-.142h8.364c.814,0,1.596.11,2.348.329s1.416.548,1.996.986c.58.438,1.041.994,1.386,1.667.343.674.516,1.464.516,2.372,0,.939-.164,1.745-.492,2.419-.33.673-.776,1.228-1.339,1.667-.564.439-1.23.767-1.996.986-.768.219-1.574.328-2.419.328h-7.467l12.681,18.363h7.889l-9.533-12.962Z" style="fill:#1d5a85; stroke-width:0px;"/></g></g></svg>