<?xml version="1.0" encoding="UTF-8"?><svg id="Layer_2" xmlns="http://www.w3.org/2000/svg" viewBox="0 0 215.555 141.642"><g id="Data"><g id="Logo-Horizontal"><path d="M28.546,126.013h1.126c.147,0,.221.074.221.221v15.01c0,.147-.074.22-.221.22h-1.126c-.147,0-.22-.073-.22-.22v-6.755l-.089-.088h-5.474l-.088.088v6.755c0,.147-.074.22-.221.22h-1.126c-.147,0-.221-.073-.221-.22v-15.01c0-.147.074-.221.221-.221h1.126c.147,0,.221.074.221.221v6.71l.088.088h5.474l.089-.088v-6.71c0-.147.073-.221.22-.221" style="fill:#1d5a85; stroke-width:0px;"/><path d="M35.731,141.078c-.684-.375-1.214-.901-1.589-1.578s-.563-1.457-.563-2.34v-6.821c0-.882.188-1.666.563-2.35.375-.685.905-1.214,1.589-1.589.684-.376,1.475-.564,2.373-.564s1.689.188,2.373.564c.684.375,1.218.904,1.6,1.589.383.684.574,1.468.574,2.35v6.821c0,.883-.191,1.663-.574,2.34-.382.677-.916,1.203-1.6,1.578-.684.376-1.475.563-2.373.563s-1.689-.187-2.373-.563M40.267,139.434c.544-.559.817-1.295.817-2.207v-6.932c0-.927-.273-1.674-.817-2.24-.544-.566-1.265-.85-2.163-.85-.883,0-1.597.284-2.141.85-.545.566-.817,1.313-.817,2.24v6.932c0,.912.272,1.648.817,2.207.544.559,1.258.839,2.141.839.898,0,1.619-.28,2.163-.839" style="fill:#1d5a85; stroke-width:0px;"/><path d="M54.99,126.013h1.148c.147,0,.221.074.221.221v15.01c0,.147-.074.22-.221.22h-1.126c-.147,0-.221-.073-.221-.22v-12.008l-.044-.089-.066.044-2.936,5.1c-.074.102-.162.154-.265.154h-.242c-.104,0-.192-.052-.266-.154l-2.957-5.077-.066-.045-.045.089v11.986c0,.147-.073.22-.22.22h-1.126c-.147,0-.221-.073-.221-.22v-15.01c0-.147.074-.221.221-.221h1.148c.103,0,.191.052.265.155l3.333,5.672.066.022.066-.022,3.289-5.672c.074-.103.162-.155.265-.155" style="fill:#1d5a85; stroke-width:0px;"/><path d="M68.741,127.382h-6.622l-.088.088v5.474l.088.088h4.459c.146,0,.22.074.22.221v.927c0,.147-.074.221-.22.221h-4.459l-.088.089v5.518l.088.088h6.622c.147,0,.22.074.22.221v.927c0,.147-.073.221-.22.221h-8.057c-.147,0-.221-.074-.221-.221v-15.01c0-.147.074-.221.221-.221h8.057c.147,0,.22.074.22.221v.927c0,.147-.073.221-.22.221" style="fill:#1d5a85; stroke-width:0px;"/><path d="M77.218,141.244v-15.01c0-.147.073-.221.22-.221h1.126c.147,0,.221.074.221.221v15.01c0,.148-.074.221-.221.221h-1.126c-.147,0-.22-.073-.22-.221" style="fill:#1d5a85; stroke-width:0px;"/><path d="M90.815,126.013h1.126c.147,0,.221.074.221.221v15.01c0,.147-.074.22-.221.22h-1.192c-.132,0-.221-.051-.265-.154l-5.915-11.809-.078-.044-.033.066.022,11.721c0,.147-.074.22-.221.22h-1.126c-.147,0-.22-.073-.22-.22v-15.01c0-.147.073-.221.22-.221h1.193c.132,0,.22.052.265.155l5.915,11.853.077.044.034-.066-.022-11.765c0-.147.073-.221.22-.221" style="fill:#1d5a85; stroke-width:0px;"/><path d="M96.719,140.549c-.816-.729-1.225-1.703-1.225-2.925v-.596c0-.147.073-.221.221-.221h1.082c.146,0,.22.074.22.221v.508c0,.825.28,1.487.839,1.987.559.5,1.302.75,2.23.75.868,0,1.552-.235,2.052-.706.5-.471.751-1.089.751-1.854,0-.5-.118-.935-.354-1.303-.235-.367-.581-.706-1.037-1.015-.456-.309-1.111-.699-1.964-1.17-.913-.486-1.63-.912-2.153-1.28-.522-.368-.945-.817-1.269-1.347-.324-.529-.485-1.177-.485-1.942,0-1.192.382-2.126,1.148-2.804.764-.676,1.788-1.015,3.068-1.015,1.368,0,2.457.376,3.266,1.126.81.75,1.214,1.744,1.214,2.98v.507c0,.148-.073.221-.22.221h-1.104c-.147,0-.221-.073-.221-.221v-.485c0-.824-.265-1.49-.794-1.998-.53-.507-1.258-.761-2.186-.761-.824,0-1.468.213-1.931.64-.464.427-.695,1.03-.695,1.81,0,.5.11.919.331,1.258.221.339.541.648.96.927.419.28,1.063.655,1.931,1.126,1.001.559,1.77,1.034,2.307,1.423.537.391.964.839,1.28,1.347.317.508.475,1.13.475,1.865,0,1.236-.397,2.218-1.192,2.947-.795.729-1.876,1.093-3.245,1.093-1.383,0-2.483-.364-3.3-1.093" style="fill:#1d5a85; stroke-width:0px;"/><path d="M115.416,127.172c.728.788,1.093,1.829,1.093,3.124,0,1.28-.365,2.307-1.093,3.079-.728.773-1.682,1.159-2.859,1.159h-3.289l-.088.088v6.622c0,.148-.074.221-.221.221h-1.126c-.147,0-.22-.073-.22-.221v-15.031c0-.147.073-.221.22-.221h4.724c1.177,0,2.131.394,2.859,1.18M114.235,132.437c.47-.53.706-1.236.706-2.119,0-.897-.236-1.615-.706-2.152-.471-.537-1.097-.805-1.876-.805h-3.091l-.088.087v5.695l.088.089h3.091c.779,0,1.405-.265,1.876-.795" style="fill:#1d5a85; stroke-width:0px;"/><path d="M127.854,127.382h-6.622l-.088.088v5.474l.088.088h4.459c.146,0,.22.074.22.221v.927c0,.147-.074.221-.22.221h-4.459l-.088.089v5.518l.088.088h6.622c.147,0,.22.074.22.221v.927c0,.147-.073.221-.22.221h-8.057c-.147,0-.221-.074-.221-.221v-15.01c0-.147.074-.221.221-.221h8.057c.147,0,.22.074.22.221v.927c0,.147-.073.221-.22.221" style="fill:#1d5a85; stroke-width:0px;"/><path d="M132.258,140.45c-.817-.795-1.225-1.847-1.225-3.156v-7.131c0-1.309.408-2.357,1.225-3.145.816-.787,1.894-1.181,3.233-1.181,1.354,0,2.44.39,3.257,1.17.816.78,1.224,1.818,1.224,3.113v.198c0,.147-.073.221-.22.221l-1.126.044c-.147,0-.221-.066-.221-.199v-.308c0-.854-.268-1.546-.805-2.076-.538-.529-1.24-.794-2.109-.794s-1.567.261-2.096.783c-.53.523-.795,1.218-.795,2.087v7.328c0,.868.265,1.564.795,2.086.529.522,1.228.783,2.096.783s1.571-.264,2.109-.794c.537-.53.805-1.222.805-2.075v-.309c0-.133.074-.199.221-.199l1.126.066c.147,0,.22.074.22.221v.154c0,1.296-.408,2.337-1.224,3.124-.817.787-1.903,1.181-3.257,1.181-1.339,0-2.417-.398-3.233-1.192" style="fill:#1d5a85; stroke-width:0px;"/><path d="M151.693,126.234v.927c0,.147-.074.221-.221.221h-3.598l-.088.088v13.774c0,.147-.074.221-.221.221h-1.126c-.147,0-.22-.074-.22-.221v-13.774l-.089-.088h-3.465c-.147,0-.221-.074-.221-.221v-.927c0-.147.074-.221.221-.221h8.807c.147,0,.221.074.221.221" style="fill:#1d5a85; stroke-width:0px;"/><path d="M154.85,141.244v-15.01c0-.147.073-.221.22-.221h1.126c.147,0,.221.074.221.221v15.01c0,.148-.074.221-.221.221h-1.126c-.147,0-.22-.073-.22-.221" style="fill:#1d5a85; stroke-width:0px;"/><path d="M162.276,141.078c-.684-.375-1.214-.901-1.589-1.578s-.563-1.457-.563-2.34v-6.821c0-.882.188-1.666.563-2.35.375-.685.905-1.214,1.589-1.589.684-.376,1.475-.564,2.373-.564s1.689.188,2.373.564c.684.375,1.218.904,1.6,1.589.383.684.574,1.468.574,2.35v6.821c0,.883-.191,1.663-.574,2.34-.382.677-.916,1.203-1.6,1.578-.684.376-1.475.563-2.373.563s-1.689-.187-2.373-.563M166.812,139.434c.544-.559.817-1.295.817-2.207v-6.932c0-.927-.273-1.674-.817-2.24-.544-.566-1.265-.85-2.163-.85-.883,0-1.597.284-2.141.85-.545.566-.817,1.313-.817,2.24v6.932c0,.912.272,1.648.817,2.207.544.559,1.258.839,2.141.839.898,0,1.619-.28,2.163-.839" style="fill:#1d5a85; stroke-width:0px;"/><path d="M180.807,126.013h1.126c.147,0,.221.074.221.221v15.01c0,.147-.074.22-.221.22h-1.192c-.132,0-.221-.051-.265-.154l-5.915-11.809-.078-.044-.033.066.022,11.721c0,.147-.074.22-.221.22h-1.126c-.147,0-.22-.073-.22-.22v-15.01c0-.147.073-.221.22-.221h1.192c.133,0,.221.052.266.155l5.915,11.853.077.044.034-.066-.022-11.765c0-.147.073-.221.22-.221" style="fill:#1d5a85; stroke-width:0px;"/><path d="M186.711,140.549c-.816-.729-1.225-1.703-1.225-2.925v-.596c0-.147.073-.221.221-.221h1.082c.146,0,.22.074.22.221v.508c0,.825.28,1.487.839,1.987.559.5,1.302.75,2.23.75.868,0,1.552-.235,2.052-.706.5-.471.751-1.089.751-1.854,0-.5-.118-.935-.354-1.303-.235-.367-.581-.706-1.037-1.015-.456-.309-1.111-.699-1.964-1.17-.913-.486-1.63-.912-2.153-1.28-.522-.368-.945-.817-1.269-1.347-.324-.529-.485-1.177-.485-1.942,0-1.192.382-2.126,1.148-2.804.764-.676,1.788-1.015,3.068-1.015,1.368,0,2.457.376,3.266,1.126.81.75,1.214,1.744,1.214,2.98v.507c0,.148-.073.221-.22.221h-1.104c-.147,0-.221-.073-.221-.221v-.485c0-.824-.265-1.49-.794-1.998-.53-.507-1.258-.761-2.186-.761-.824,0-1.468.213-1.931.64-.464.427-.695,1.03-.695,1.81,0,.5.11.919.331,1.258.221.339.541.648.96.927.419.28,1.063.655,1.931,1.126,1.001.559,1.77,1.034,2.307,1.423.537.391.964.839,1.28,1.347.317.508.475,1.13.475,1.865,0,1.236-.397,2.218-1.192,2.947-.795.729-1.876,1.093-3.245,1.093-1.383,0-2.483-.364-3.3-1.093" style="fill:#1d5a85; stroke-width:0px;"/><polygon points="135.323 7.152 186.058 49.759 186.058 68.784 184.057 68.784 184.057 50.691 135.24 9.695 135.323 7.152" style="fill:#424242; stroke-width:0px;"/><rect x="120.995" y="20.354" width="29.686" height="2.001" style="fill:#424242; stroke-width:0px;"/><polygon points="159.548 29.883 121.478 29.883 119.816 27.767 159.548 27.882 159.548 29.883" style="fill:#424242; stroke-width:0px;"/><polygon points="169.831 38.401 131.1 38.401 129.847 36.4 168.577 36.4 169.831 38.401" style="fill:#424242; stroke-width:0px;"/><rect x="137.163" y="44.918" width="42.953" height="2.001" style="fill:#424242; stroke-width:0px;"/><rect x="137.474" y="53.643" width="47.939" height="2.001" style="fill:#424242; stroke-width:0px;"/><rect x="137.823" y="61.745" width="47.59" height="2.001" style="fill:#424242; stroke-width:0px;"/><path d="M93.057,30.091h-12.222v-12.222h12.222v12.222ZM82.836,28.09h8.221v-8.221h-8.221v8.221Z" style="fill:#424242; stroke-width:0px;"/><polygon points="47.065 26.702 44.981 28.358 44.981 4.691 62.362 4.691 62.362 15.391 60.279 17.045 60.279 6.774 47.065 6.774 47.065 26.702" style="fill:#424242; stroke-width:0px;"/><polygon points="113.93 22.257 87.427 0 29.498 42.567 29.498 68.825 31.499 68.825 31.499 43.579 87.344 2.543 112.399 23.583 113.93 22.257" style="fill:#424242; stroke-width:0px;"/><polygon points="116.07 24.054 114.539 25.38 136.162 43.539 136.162 68.806 138.162 68.806 138.162 42.607 116.07 24.054" style="fill:#424242; stroke-width:0px;"/><polygon points="135.291 7.252 135.259 9.695 74.533 74.563 51.725 49.477 55.836 49.639 74.222 61.475 135.291 7.252" style="fill:#66b545; stroke-width:0px;"/><path d="M23.121,95.912c-1.02-1.238-2.182-2.208-3.49-2.911-1.307-.701-2.787-1.052-4.437-1.052-1.378,0-2.65.289-3.82.867-1.169.578-2.188,1.349-3.055,2.312-.867.964-1.548,2.058-2.044,3.282-.495,1.225-.742,2.498-.742,3.819,0,1.349.253,2.649.763,3.902.509,1.252,1.211,2.36,2.106,3.323.893.964,1.94,1.734,3.137,2.313,1.198.578,2.484.866,3.86.866,1.596,0,2.98-.336,4.15-1.011,1.17-.674,2.264-1.59,3.282-2.745h6.441c-.578,1.348-1.341,2.574-2.291,3.674-.95,1.101-2.038,2.037-3.262,2.807-1.225.772-2.539,1.37-3.943,1.796-1.404.428-2.821.64-4.252.64-2.147,0-4.165-.413-6.049-1.239-1.886-.825-3.53-1.953-4.933-3.385-1.405-1.431-2.513-3.096-3.325-4.996-.811-1.899-1.217-3.907-1.217-6.027,0-2.092.406-4.068,1.217-5.925.812-1.858,1.92-3.482,3.325-4.872,1.403-1.39,3.034-2.491,4.891-3.303,1.859-.811,3.847-1.218,5.966-1.218,1.514,0,2.986.213,4.418.64,1.431.427,2.753,1.032,3.963,1.817,1.211.784,2.306,1.734,3.283,2.848.977,1.115,1.769,2.375,2.374,3.778h-6.316Z" style="fill:#1d5a85; stroke-width:0px;"/><path d="M49.833,117.794c-2.12,0-4.123-.398-6.008-1.197-1.885-.798-3.536-1.892-4.954-3.282-1.417-1.39-2.538-3.021-3.364-4.893-.826-1.871-1.24-3.881-1.24-6.028,0-2.174.406-4.204,1.219-6.09.811-1.884,1.926-3.53,3.344-4.933,1.417-1.404,3.069-2.512,4.954-3.324,1.886-.811,3.902-1.218,6.049-1.218s4.17.407,6.069,1.218c1.899.812,3.55,1.92,4.954,3.324,1.404,1.403,2.519,3.049,3.345,4.933.826,1.886,1.238,3.916,1.238,6.09,0,2.147-.412,4.157-1.238,6.028-.826,1.872-1.948,3.503-3.365,4.893-1.419,1.39-3.069,2.484-4.955,3.282-1.885.799-3.901,1.197-6.048,1.197M49.833,92.031c-1.403,0-2.718.276-3.943.826-1.226.551-2.292,1.294-3.2,2.23s-1.617,2.029-2.127,3.282c-.509,1.252-.763,2.58-.763,3.984,0,1.376.261,2.684.784,3.922.523,1.239,1.232,2.327,2.127,3.262.893.936,1.953,1.679,3.179,2.23,1.225.55,2.54.826,3.943.826s2.717-.276,3.942-.826c1.225-.551,2.285-1.294,3.18-2.23.894-.935,1.603-2.023,2.125-3.262.523-1.238.786-2.546.786-3.922,0-1.404-.255-2.732-.765-3.984-.508-1.253-1.211-2.346-2.105-3.282-.895-.936-1.954-1.679-3.179-2.23-1.225-.55-2.553-.826-3.984-.826" style="fill:#1d5a85; stroke-width:0px;"/><polygon points="95.083 86.829 95.083 92.155 95.083 117.794 88.724 117.794 75.803 95.293 75.678 95.293 75.678 117.794 69.939 117.794 69.939 86.829 76.504 86.829 89.303 109.371 89.427 109.371 89.427 92.155 84.101 92.155 89.427 86.829 95.083 86.829" style="fill:#1d5a85; stroke-width:0px;"/><path d="M115.48,117.794c-2.12,0-4.123-.398-6.008-1.197-1.885-.798-3.536-1.892-4.954-3.282-1.417-1.39-2.538-3.021-3.364-4.893-.826-1.871-1.24-3.881-1.24-6.028,0-2.174.406-4.204,1.219-6.09.811-1.884,1.926-3.53,3.344-4.933,1.417-1.404,3.069-2.512,4.954-3.324,1.886-.811,3.902-1.218,6.049-1.218s4.17.407,6.069,1.218c1.899.812,3.55,1.92,4.954,3.324,1.404,1.403,2.519,3.049,3.345,4.933.826,1.886,1.238,3.916,1.238,6.09,0,2.147-.412,4.157-1.238,6.028-.826,1.872-1.948,3.503-3.365,4.893-1.419,1.39-3.069,2.484-4.955,3.282-1.885.799-3.901,1.197-6.048,1.197M115.48,92.031c-1.403,0-2.718.276-3.944.826-1.225.551-2.291,1.294-3.199,2.23-.908.936-1.617,2.029-2.127,3.282-.509,1.252-.763,2.58-.763,3.984,0,1.376.261,2.684.784,3.922.523,1.239,1.232,2.327,2.127,3.262.893.936,1.953,1.679,3.178,2.23,1.226.55,2.541.826,3.944.826s2.717-.276,3.942-.826c1.225-.551,2.285-1.294,3.18-2.23.894-.935,1.603-2.023,2.125-3.262.523-1.238.786-2.546.786-3.922,0-1.404-.255-2.732-.765-3.984-.508-1.253-1.211-2.346-2.105-3.282-.895-.936-1.954-1.679-3.179-2.23-1.225-.55-2.553-.826-3.984-.826" style="fill:#1d5a85; stroke-width:0px;"/><polygon points="162.67 86.829 140.872 117.794 135.669 117.794 135.669 92.155 141.407 86.829 141.407 107.596 141.449 107.596 155.652 86.829 162.67 86.829" style="fill:#1d5a85; stroke-width:0px;"/><polygon points="167.706 86.788 184.387 86.788 184.387 92.196 173.446 92.196 173.446 99.752 179.638 99.752 179.638 105.119 173.446 105.119 173.446 112.427 184.387 112.427 184.387 117.794 167.706 117.794 167.706 86.788" style="fill:#1d5a85; stroke-width:0px;"/><path d="M207.174,106.695c1.046-.248,1.96-.543,2.746-.888.784-.343,1.575-.901,2.373-1.672.963-.908,1.699-2.036,2.209-3.385.508-1.348.763-2.684.763-4.005,0-1.486-.316-2.883-.949-4.19-.634-1.307-1.527-2.416-2.684-3.324-1.101-.853-2.291-1.411-3.571-1.672-1.28-.262-2.608-.393-3.984-.393h-9.455v.044h-3.682v31.006h5.973l-.233-5.367v-20.231l.002-.126h7.354c.715,0,1.403.097,2.064.29.66.192,1.244.481,1.754.866.51.386.916.875,1.219,1.466.302.593.454,1.287.454,2.085,0,.826-.145,1.535-.433,2.127-.29.591-.682,1.08-1.177,1.465-.496.386-1.081.675-1.755.867-.675.193-1.384.289-2.126.289h-6.565l11.148,16.143h6.936l-8.381-11.395Z" style="fill:#1d5a85; stroke-width:0px;"/></g></g></svg>