<?xml version="1.0" encoding="UTF-8"?><svg id="Layer_2" xmlns="http://www.w3.org/2000/svg" viewBox="0 0 274.247 67.598"><g id="Data"><g id="Name-White"><path d="M38.105,48.398h1.383c.181,0,.272.091.272.271v18.441c0,.181-.091.271-.272.271h-1.383c-.181,0-.271-.09-.271-.271v-8.298l-.108-.109h-6.726l-.108.109v8.298c0,.181-.091.271-.272.271h-1.383c-.181,0-.271-.09-.271-.271v-18.441c0-.18.09-.271.271-.271h1.383c.181,0,.272.091.272.271v8.244l.108.109h6.726l.108-.109v-8.244c0-.18.09-.271.271-.271" style="fill:#fff; stroke-width:0px;"/><path d="M46.932,66.906c-.841-.461-1.491-1.107-1.952-1.939-.461-.831-.692-1.79-.692-2.874v-8.38c0-1.085.231-2.047.692-2.888.461-.841,1.111-1.492,1.952-1.953.841-.461,1.812-.692,2.915-.692s2.075.231,2.916.692c.84.461,1.496,1.112,1.966,1.953.47.841.705,1.803.705,2.888v8.38c0,1.084-.235,2.043-.705,2.874-.47.832-1.126,1.478-1.966,1.939-.841.461-1.813.692-2.916.692s-2.074-.231-2.915-.692M52.505,64.886c.669-.687,1.004-1.591,1.004-2.712v-8.516c0-1.138-.335-2.056-1.004-2.752-.669-.696-1.555-1.044-2.658-1.044-1.084,0-1.961.348-2.63,1.044-.669.696-1.003,1.614-1.003,2.752v8.516c0,1.121.334,2.025,1.003,2.712.669.687,1.546,1.03,2.63,1.03,1.103,0,1.989-.343,2.658-1.03" style="fill:#fff; stroke-width:0px;"/><path d="M70.593,48.398h1.41c.181,0,.272.091.272.271v18.441c0,.181-.091.271-.272.271h-1.383c-.181,0-.271-.09-.271-.271v-14.753l-.055-.108-.08.054-3.607,6.265c-.091.126-.2.19-.326.19h-.298c-.127,0-.235-.064-.326-.19l-3.633-6.238-.082-.054-.054.108v14.726c0,.181-.091.271-.271.271h-1.384c-.18,0-.27-.09-.27-.271v-18.441c0-.18.09-.271.27-.271h1.411c.126,0,.235.064.325.19l4.095,6.969.082.027.081-.027,4.041-6.969c.09-.126.199-.19.325-.19" style="fill:#fff; stroke-width:0px;"/><path d="M87.488,50.079h-8.136l-.108.108v6.725l.108.109h5.478c.18,0,.271.091.271.271v1.139c0,.181-.091.272-.271.272h-5.478l-.108.108v6.78l.108.108h8.136c.18,0,.271.09.271.271v1.139c0,.181-.091.271-.271.271h-9.899c-.181,0-.271-.09-.271-.271v-18.44c0-.181.09-.272.271-.272h9.899c.18,0,.271.091.271.272v1.139c0,.18-.091.271-.271.271" style="fill:#fff; stroke-width:0px;"/><path d="M97.902,67.109v-18.44c0-.181.09-.272.271-.272h1.383c.181,0,.271.091.271.272v18.44c0,.181-.09.271-.271.271h-1.383c-.181,0-.271-.09-.271-.271" style="fill:#fff; stroke-width:0px;"/><path d="M114.607,48.398h1.383c.181,0,.272.091.272.271v18.441c0,.181-.091.271-.272.271h-1.464c-.163,0-.271-.063-.326-.19l-7.267-14.508-.096-.054-.04.081.027,14.4c0,.181-.09.271-.271.271h-1.383c-.181,0-.271-.09-.271-.271v-18.441c0-.18.09-.271.271-.271h1.464c.163,0,.272.064.326.19l7.268,14.563.094.054.041-.082-.027-14.454c0-.18.09-.271.271-.271" style="fill:#fff; stroke-width:0px;"/><path d="M121.86,66.255c-1.003-.895-1.505-2.092-1.505-3.593v-.732c0-.181.09-.272.272-.272h1.328c.18,0,.271.091.271.272v.623c0,1.013.344,1.827,1.031,2.441.687.615,1.6.922,2.739.922,1.067,0,1.907-.289,2.522-.868.614-.578.922-1.337.922-2.277,0-.615-.145-1.149-.434-1.601-.289-.451-.715-.868-1.275-1.247-.56-.38-1.365-.859-2.413-1.438-1.122-.596-2.003-1.12-2.644-1.573-.642-.451-1.162-1.003-1.56-1.653-.397-.651-.596-1.447-.596-2.387,0-1.464.47-2.612,1.41-3.444.94-.831,2.197-1.248,3.769-1.248,1.682,0,3.02.462,4.014,1.383.994.923,1.492,2.143,1.492,3.662v.623c0,.181-.091.272-.271.272h-1.356c-.182,0-.272-.091-.272-.272v-.596c0-1.013-.325-1.831-.976-2.455-.651-.623-1.545-.935-2.685-.935-1.012,0-1.803.262-2.373.786-.569.525-.854,1.266-.854,2.224,0,.615.136,1.13.407,1.546s.664.795,1.179,1.138c.516.344,1.307.806,2.373,1.384,1.23.687,2.174,1.27,2.835,1.749.659.479,1.184,1.031,1.572,1.654.389.624.583,1.388.583,2.292,0,1.519-.487,2.725-1.464,3.62-.977.895-2.305,1.343-3.986,1.343-1.7,0-3.051-.448-4.055-1.343" style="fill:#fff; stroke-width:0px;"/><path d="M144.83,49.821c.895.968,1.342,2.247,1.342,3.838,0,1.573-.447,2.834-1.342,3.783s-2.066,1.424-3.512,1.424h-4.041l-.108.108v8.135c0,.182-.091.272-.272.272h-1.383c-.181,0-.271-.09-.271-.272v-18.467c0-.181.09-.271.271-.271h5.804c1.446,0,2.617.484,3.512,1.45M143.38,56.289c.578-.651.868-1.518.868-2.603,0-1.103-.29-1.984-.868-2.644-.579-.66-1.347-.99-2.305-.99h-3.797l-.108.108v6.997l.108.109h3.797c.958,0,1.726-.326,2.305-.977" style="fill:#fff; stroke-width:0px;"/><path d="M160.112,50.079h-8.136l-.108.108v6.725l.108.109h5.478c.18,0,.271.091.271.271v1.139c0,.181-.091.272-.271.272h-5.478l-.108.108v6.78l.108.108h8.136c.18,0,.271.09.271.271v1.139c0,.181-.091.271-.271.271h-9.899c-.18,0-.271-.09-.271-.271v-18.44c0-.181.091-.272.271-.272h9.899c.18,0,.271.091.271.272v1.139c0,.18-.091.271-.271.271" style="fill:#fff; stroke-width:0px;"/><path d="M165.522,66.134c-1.004-.977-1.506-2.269-1.506-3.878v-8.76c0-1.609.502-2.896,1.506-3.864,1.003-.967,2.327-1.451,3.972-1.451,1.664,0,2.997.479,4.001,1.437,1.003.959,1.505,2.234,1.505,3.825v.243c0,.181-.091.272-.271.272l-1.383.054c-.182,0-.272-.081-.272-.244v-.38c0-1.048-.329-1.899-.989-2.549-.661-.651-1.524-.976-2.591-.976s-1.925.321-2.576.962c-.651.643-.976,1.497-.976,2.563v9.003c0,1.068.325,1.922.976,2.563.651.642,1.51.963,2.576.963s1.93-.325,2.591-.976c.66-.651.989-1.501.989-2.55v-.379c0-.163.09-.244.272-.244l1.383.081c.18,0,.271.091.271.271v.19c0,1.591-.502,2.871-1.505,3.837-1.004.968-2.337,1.451-4.001,1.451-1.645,0-2.969-.488-3.972-1.464" style="fill:#fff; stroke-width:0px;"/><path d="M189.4,48.669v1.139c0,.181-.091.271-.271.271h-4.42l-.109.108v16.922c0,.182-.091.272-.272.272h-1.383c-.18,0-.27-.09-.27-.272v-16.922l-.109-.108h-4.258c-.181,0-.271-.09-.271-.271v-1.139c0-.181.09-.271.271-.271h10.821c.18,0,.271.09.271.271" style="fill:#fff; stroke-width:0px;"/><path d="M193.278,67.109v-18.44c0-.181.09-.272.271-.272h1.383c.181,0,.271.091.271.272v18.44c0,.181-.09.271-.271.271h-1.383c-.181,0-.271-.09-.271-.271" style="fill:#fff; stroke-width:0px;"/><path d="M202.402,66.906c-.841-.461-1.491-1.107-1.952-1.939-.461-.831-.692-1.79-.692-2.874v-8.38c0-1.085.231-2.047.692-2.888.461-.841,1.111-1.492,1.952-1.953.841-.461,1.812-.692,2.915-.692s2.075.231,2.916.692c.84.461,1.496,1.112,1.966,1.953.47.841.705,1.803.705,2.888v8.38c0,1.084-.235,2.043-.705,2.874-.47.832-1.126,1.478-1.966,1.939-.841.461-1.813.692-2.916.692s-2.074-.231-2.915-.692M207.975,64.886c.669-.687,1.004-1.591,1.004-2.712v-8.516c0-1.138-.335-2.056-1.004-2.752-.669-.696-1.555-1.044-2.658-1.044-1.084,0-1.961.348-2.63,1.044-.669.696-1.003,1.614-1.003,2.752v8.516c0,1.121.334,2.025,1.003,2.712.669.687,1.546,1.03,2.63,1.03,1.103,0,1.989-.343,2.658-1.03" style="fill:#fff; stroke-width:0px;"/><path d="M225.168,48.398h1.383c.181,0,.272.091.272.271v18.441c0,.181-.091.271-.272.271h-1.464c-.163,0-.271-.063-.326-.19l-7.267-14.508-.096-.054-.04.081.027,14.4c0,.181-.09.271-.271.271h-1.383c-.181,0-.271-.09-.271-.271v-18.441c0-.18.09-.271.271-.271h1.464c.163,0,.272.064.326.19l7.268,14.563.094.054.041-.082-.027-14.454c0-.18.09-.271.271-.271" style="fill:#fff; stroke-width:0px;"/><path d="M232.421,66.255c-1.003-.895-1.505-2.092-1.505-3.593v-.732c0-.181.09-.272.272-.272h1.328c.18,0,.271.091.271.272v.623c0,1.013.344,1.827,1.031,2.441.687.615,1.6.922,2.739.922,1.067,0,1.907-.289,2.522-.868.614-.578.922-1.337.922-2.277,0-.615-.145-1.149-.434-1.601-.289-.451-.715-.868-1.275-1.247-.56-.38-1.365-.859-2.413-1.438-1.122-.596-2.003-1.12-2.644-1.573-.642-.451-1.162-1.003-1.56-1.653-.397-.651-.596-1.447-.596-2.387,0-1.464.47-2.612,1.41-3.444.94-.831,2.197-1.248,3.769-1.248,1.682,0,3.02.462,4.014,1.383.994.923,1.492,2.143,1.492,3.662v.623c0,.181-.091.272-.271.272h-1.356c-.182,0-.272-.091-.272-.272v-.596c0-1.013-.325-1.831-.976-2.455-.651-.623-1.545-.935-2.685-.935-1.012,0-1.803.262-2.373.786-.569.525-.854,1.266-.854,2.224,0,.615.136,1.13.407,1.546s.664.795,1.179,1.138c.516.344,1.307.806,2.373,1.384,1.23.687,2.174,1.27,2.835,1.749.659.479,1.184,1.031,1.572,1.654.389.624.583,1.388.583,2.292,0,1.519-.487,2.725-1.464,3.62-.977.895-2.305,1.343-3.986,1.343-1.7,0-3.051-.448-4.055-1.343" style="fill:#fff; stroke-width:0px;"/><path d="M29.417,11.608c-1.297-1.575-2.777-2.81-4.44-3.703-1.663-.893-3.546-1.339-5.646-1.339-1.752,0-3.37.367-4.86,1.103-1.487.735-2.783,1.716-3.887,2.941-1.102,1.226-1.969,2.619-2.599,4.176-.631,1.559-.945,3.178-.945,4.859,0,1.716.322,3.371.971,4.964.647,1.594,1.541,3.003,2.679,4.228,1.137,1.226,2.469,2.207,3.991,2.942,1.524.736,3.161,1.103,4.912,1.103,2.03,0,3.791-.428,5.28-1.286,1.488-.858,2.879-2.023,4.175-3.493h8.194c-.734,1.716-1.706,3.274-2.914,4.674-1.209,1.401-2.593,2.592-4.15,3.572-1.559.981-3.23,1.743-5.017,2.285-1.786.544-3.589.814-5.409.814-2.732,0-5.299-.525-7.697-1.576-2.399-1.05-4.491-2.485-6.276-4.307-1.787-1.82-3.197-3.939-4.23-6.356-1.032-2.416-1.549-4.972-1.549-7.669,0-2.661.517-5.174,1.549-7.537,1.033-2.364,2.443-4.43,4.23-6.199,1.785-1.768,3.86-3.169,6.223-4.202C14.367.569,16.897.052,19.593.052c1.926,0,3.799.271,5.621.814,1.82.544,3.501,1.313,5.042,2.312,1.541.998,2.934,2.206,4.177,3.624,1.242,1.418,2.25,3.02,3.019,4.806h-8.035Z" style="fill:#fff; stroke-width:0px;"/><path d="M63.402,39.448c-2.697,0-5.246-.507-7.643-1.523-2.4-1.015-4.5-2.408-6.303-4.176-1.804-1.768-3.23-3.843-4.281-6.225-1.051-2.381-1.577-4.938-1.577-7.669,0-2.766.516-5.349,1.55-7.748,1.033-2.398,2.451-4.491,4.255-6.277,1.803-1.786,3.905-3.195,6.303-4.228C58.105.569,60.67.052,63.402.052s5.305.517,7.721,1.55c2.416,1.033,4.518,2.442,6.303,4.228,1.787,1.786,3.205,3.879,4.256,6.277,1.051,2.399,1.575,4.982,1.575,7.748,0,2.731-.524,5.288-1.575,7.669-1.051,2.382-2.479,4.457-4.281,6.225-1.805,1.768-3.905,3.161-6.304,4.176-2.398,1.016-4.963,1.523-7.695,1.523M63.402,6.67c-1.785,0-3.458.351-5.017,1.051-1.559.701-2.916,1.646-4.071,2.837-1.155,1.19-2.057,2.582-2.705,4.176-.649,1.593-.972,3.283-.972,5.068,0,1.752.333,3.415.998,4.991.665,1.575,1.567,2.959,2.706,4.149,1.136,1.192,2.485,2.137,4.044,2.837,1.559.701,3.232,1.051,5.017,1.051s3.457-.35,5.016-1.051c1.558-.7,2.907-1.645,4.045-2.837,1.137-1.19,2.039-2.574,2.704-4.149.666-1.576,1-3.239,1-4.991,0-1.785-.325-3.475-.973-5.068-.647-1.594-1.541-2.986-2.679-4.176-1.139-1.191-2.486-2.136-4.044-2.837-1.559-.7-3.249-1.051-5.069-1.051" style="fill:#fff; stroke-width:0px;"/><polygon points="120.973 .052 120.973 6.828 120.973 39.448 112.883 39.448 96.443 10.82 96.284 10.82 96.284 39.448 88.983 39.448 88.983 .052 97.335 .052 113.619 28.732 113.776 28.732 113.776 6.828 107 6.828 113.776 .052 120.973 .052" style="fill:#fff; stroke-width:0px;"/><path d="M146.923,39.448c-2.697,0-5.246-.507-7.643-1.523-2.4-1.015-4.5-2.408-6.303-4.176-1.804-1.768-3.23-3.843-4.281-6.225-1.051-2.381-1.577-4.938-1.577-7.669,0-2.766.516-5.349,1.55-7.748,1.033-2.398,2.451-4.491,4.255-6.277,1.803-1.786,3.905-3.195,6.303-4.228,2.399-1.033,4.964-1.55,7.696-1.55s5.305.517,7.721,1.55c2.416,1.033,4.518,2.442,6.303,4.228,1.787,1.786,3.205,3.879,4.256,6.277,1.051,2.399,1.575,4.982,1.575,7.748,0,2.731-.524,5.288-1.575,7.669-1.051,2.382-2.479,4.457-4.281,6.225-1.805,1.768-3.905,3.161-6.304,4.176-2.398,1.016-4.963,1.523-7.695,1.523M146.923,6.67c-1.785,0-3.458.351-5.017,1.051-1.559.701-2.916,1.646-4.071,2.837-1.155,1.19-2.057,2.582-2.705,4.176-.649,1.593-.972,3.283-.972,5.068,0,1.752.333,3.415.998,4.991.665,1.575,1.567,2.959,2.706,4.149,1.136,1.192,2.485,2.137,4.044,2.837,1.559.701,3.232,1.051,5.017,1.051s3.457-.35,5.016-1.051c1.558-.7,2.907-1.645,4.045-2.837,1.137-1.19,2.039-2.574,2.704-4.149.666-1.576,1-3.239,1-4.991,0-1.785-.325-3.475-.973-5.068-.647-1.594-1.541-2.986-2.679-4.176-1.139-1.191-2.486-2.136-4.044-2.837-1.559-.7-3.249-1.051-5.069-1.051" style="fill:#fff; stroke-width:0px;"/><polygon points="206.962 .052 179.228 39.448 172.609 39.448 172.609 6.828 179.91 .052 179.91 26.474 179.963 26.474 198.033 .052 206.962 .052" style="fill:#fff; stroke-width:0px;"/><polygon points="213.37 0 234.592 0 234.592 6.88 220.672 6.88 220.672 16.494 228.551 16.494 228.551 23.322 220.672 23.322 220.672 32.62 234.592 32.62 234.592 39.449 213.37 39.449 213.37 0" style="fill:#fff; stroke-width:0px;"/><path d="M263.584,25.327c1.33-.315,2.494-.691,3.493-1.129.998-.437,2.004-1.147,3.02-2.127,1.225-1.156,2.161-2.592,2.81-4.308.647-1.715.971-3.414.971-5.095,0-1.891-.402-3.669-1.208-5.331-.806-1.663-1.942-3.073-3.414-4.229-1.401-1.086-2.915-1.795-4.543-2.127-1.629-.333-3.318-.5-5.069-.5h-12.03v.055h-4.684v39.449h7.6l-.297-6.829V7.417l.002-.16h9.356c.91,0,1.786.123,2.626.368.841.245,1.584.613,2.232,1.103.649.491,1.165,1.112,1.551,1.865.384.754.577,1.637.577,2.653,0,1.05-.183,1.952-.551,2.705-.369.753-.867,1.374-1.497,1.865-.631.491-1.375.858-2.232,1.103-.859.245-1.761.367-2.706.367h-8.351l14.182,20.539h8.825l-10.663-14.498Z" style="fill:#fff; stroke-width:0px;"/></g></g></svg>